<?xml version="1.0" encoding="UTF-8" standalone="no"?>
<!DOCTYPE svg PUBLIC "-//W3C//DTD SVG 1.1//EN"
 "http://www.w3.org/Graphics/SVG/1.1/DTD/svg11.dtd">
<!-- Generated by graphviz version 2.43.0 (0)
 -->
<!-- Title: %3 Pages: 1 -->
<svg width="1222pt" height="548pt"
 viewBox="0.00 0.00 1222.32 548.00" xmlns="http://www.w3.org/2000/svg" xmlns:xlink="http://www.w3.org/1999/xlink">
<g id="graph0" class="graph" transform="scale(1 1) rotate(0) translate(4 544)">
<title>%3</title>
<polygon fill="white" stroke="transparent" points="-4,4 -4,-544 1218.32,-544 1218.32,4 -4,4"/>
<!-- [root] aws_ebs_volume.vol&#45;reto (expand) -->
<g id="node1" class="node">
<title>[root] aws_ebs_volume.vol&#45;reto (expand)</title>
<polygon fill="none" stroke="black" points="266.82,-324 72.82,-324 72.82,-288 266.82,-288 266.82,-324"/>
<text text-anchor="middle" x="169.82" y="-302.3" font-family="Times,serif" font-size="14.00">aws_ebs_volume.vol&#45;reto</text>
</g>
<!-- [root] provider[&quot;registry.terraform.io/hashicorp/aws&quot;] -->
<g id="node11" class="node">
<title>[root] provider[&quot;registry.terraform.io/hashicorp/aws&quot;]</title>
<polygon fill="none" stroke="black" points="425.82,-108 100.56,-90 425.82,-72 751.09,-90 425.82,-108"/>
<text text-anchor="middle" x="425.82" y="-86.3" font-family="Times,serif" font-size="14.00">provider[&quot;registry.terraform.io/hashicorp/aws&quot;]</text>
</g>
<!-- [root] aws_ebs_volume.vol&#45;reto (expand)&#45;&gt;[root] provider[&quot;registry.terraform.io/hashicorp/aws&quot;] -->
<g id="edge1" class="edge">
<title>[root] aws_ebs_volume.vol&#45;reto (expand)&#45;&gt;[root] provider[&quot;registry.terraform.io/hashicorp/aws&quot;]</title>
<path fill="none" stroke="black" d="M160.4,-287.66C144.31,-255.4 116.42,-185.67 150.82,-144 168.57,-122.51 225.55,-109.64 283.08,-101.98"/>
<polygon fill="black" stroke="black" points="283.58,-105.44 293.06,-100.7 282.69,-98.5 283.58,-105.44"/>
</g>
<!-- [root] var.availability_zone -->
<g id="node13" class="node">
<title>[root] var.availability_zone</title>
<polygon fill="none" stroke="black" points="315.32,-180 160.32,-180 160.32,-144 321.32,-144 321.32,-174 315.32,-180"/>
<polyline fill="none" stroke="black" points="315.32,-180 315.32,-174 "/>
<polyline fill="none" stroke="black" points="321.32,-174 315.32,-174 "/>
<text text-anchor="middle" x="240.82" y="-158.3" font-family="Times,serif" font-size="14.00">var.availability_zone</text>
</g>
<!-- [root] aws_ebs_volume.vol&#45;reto (expand)&#45;&gt;[root] var.availability_zone -->
<g id="edge2" class="edge">
<title>[root] aws_ebs_volume.vol&#45;reto (expand)&#45;&gt;[root] var.availability_zone</title>
<path fill="none" stroke="black" d="M178.39,-287.87C190.65,-263.35 213.31,-218.03 227.69,-189.26"/>
<polygon fill="black" stroke="black" points="230.89,-190.7 232.23,-180.19 224.63,-187.57 230.89,-190.7"/>
</g>
<!-- [root] aws_instance.instance&#45;reto (expand) -->
<g id="node2" class="node">
<title>[root] aws_instance.instance&#45;reto (expand)</title>
<polygon fill="none" stroke="black" points="539.32,-324 330.32,-324 330.32,-288 539.32,-288 539.32,-324"/>
<text text-anchor="middle" x="434.82" y="-302.3" font-family="Times,serif" font-size="14.00">aws_instance.instance&#45;reto</text>
</g>
<!-- [root] aws_key_pair.key&#45;reto (expand) -->
<g id="node4" class="node">
<title>[root] aws_key_pair.key&#45;reto (expand)</title>
<polygon fill="none" stroke="black" points="512.32,-180 339.32,-180 339.32,-144 512.32,-144 512.32,-180"/>
<text text-anchor="middle" x="425.82" y="-158.3" font-family="Times,serif" font-size="14.00">aws_key_pair.key&#45;reto</text>
</g>
<!-- [root] aws_instance.instance&#45;reto (expand)&#45;&gt;[root] aws_key_pair.key&#45;reto (expand) -->
<g id="edge3" class="edge">
<title>[root] aws_instance.instance&#45;reto (expand)&#45;&gt;[root] aws_key_pair.key&#45;reto (expand)</title>
<path fill="none" stroke="black" d="M330.14,-290.48C285.37,-281.92 240.29,-269.32 226.82,-252 217.01,-239.37 217.07,-228.69 226.82,-216 233.88,-206.82 284.78,-193.35 333.32,-182.29"/>
<polygon fill="black" stroke="black" points="334.32,-185.66 343.31,-180.04 332.78,-178.83 334.32,-185.66"/>
</g>
<!-- [root] aws_security_group.sg&#45;reto (expand) -->
<g id="node7" class="node">
<title>[root] aws_security_group.sg&#45;reto (expand)</title>
<polygon fill="none" stroke="black" points="958.82,-252 746.82,-252 746.82,-216 958.82,-216 958.82,-252"/>
<text text-anchor="middle" x="852.82" y="-230.3" font-family="Times,serif" font-size="14.00">aws_security_group.sg&#45;reto</text>
</g>
<!-- [root] aws_instance.instance&#45;reto (expand)&#45;&gt;[root] aws_security_group.sg&#45;reto (expand) -->
<g id="edge4" class="edge">
<title>[root] aws_instance.instance&#45;reto (expand)&#45;&gt;[root] aws_security_group.sg&#45;reto (expand)</title>
<path fill="none" stroke="black" d="M536.54,-287.97C598.36,-277.61 677.36,-264.38 740.94,-253.74"/>
<polygon fill="black" stroke="black" points="741.73,-257.15 751.01,-252.05 740.57,-250.25 741.73,-257.15"/>
</g>
<!-- [root] aws_subnet.subnet&#45;reto (expand) -->
<g id="node8" class="node">
<title>[root] aws_subnet.subnet&#45;reto (expand)</title>
<polygon fill="none" stroke="black" points="729.32,-252 542.32,-252 542.32,-216 729.32,-216 729.32,-252"/>
<text text-anchor="middle" x="635.82" y="-230.3" font-family="Times,serif" font-size="14.00">aws_subnet.subnet&#45;reto</text>
</g>
<!-- [root] aws_instance.instance&#45;reto (expand)&#45;&gt;[root] aws_subnet.subnet&#45;reto (expand) -->
<g id="edge5" class="edge">
<title>[root] aws_instance.instance&#45;reto (expand)&#45;&gt;[root] aws_subnet.subnet&#45;reto (expand)</title>
<path fill="none" stroke="black" d="M483.74,-287.97C511.82,-278.19 547.28,-265.84 576.89,-255.52"/>
<polygon fill="black" stroke="black" points="578.4,-258.71 586.69,-252.11 576.1,-252.09 578.4,-258.71"/>
</g>
<!-- [root] var.ami_id -->
<g id="node12" class="node">
<title>[root] var.ami_id</title>
<polygon fill="none" stroke="black" points="518.32,-252 435.32,-252 435.32,-216 524.32,-216 524.32,-246 518.32,-252"/>
<polyline fill="none" stroke="black" points="518.32,-252 518.32,-246 "/>
<polyline fill="none" stroke="black" points="524.32,-246 518.32,-246 "/>
<text text-anchor="middle" x="479.82" y="-230.3" font-family="Times,serif" font-size="14.00">var.ami_id</text>
</g>
<!-- [root] aws_instance.instance&#45;reto (expand)&#45;&gt;[root] var.ami_id -->
<g id="edge6" class="edge">
<title>[root] aws_instance.instance&#45;reto (expand)&#45;&gt;[root] var.ami_id</title>
<path fill="none" stroke="black" d="M445.95,-287.7C451.18,-279.56 457.52,-269.69 463.3,-260.7"/>
<polygon fill="black" stroke="black" points="466.36,-262.41 468.83,-252.1 460.48,-258.62 466.36,-262.41"/>
</g>
<!-- [root] var.private_ip_instance -->
<g id="node14" class="node">
<title>[root] var.private_ip_instance</title>
<polygon fill="none" stroke="black" points="411.32,-252 236.32,-252 236.32,-216 417.32,-216 417.32,-246 411.32,-252"/>
<polyline fill="none" stroke="black" points="411.32,-252 411.32,-246 "/>
<polyline fill="none" stroke="black" points="417.32,-246 411.32,-246 "/>
<text text-anchor="middle" x="326.82" y="-230.3" font-family="Times,serif" font-size="14.00">var.private_ip_instance</text>
</g>
<!-- [root] aws_instance.instance&#45;reto (expand)&#45;&gt;[root] var.private_ip_instance -->
<g id="edge7" class="edge">
<title>[root] aws_instance.instance&#45;reto (expand)&#45;&gt;[root] var.private_ip_instance</title>
<path fill="none" stroke="black" d="M408.4,-287.88C394.41,-278.81 377.05,-267.55 361.94,-257.76"/>
<polygon fill="black" stroke="black" points="363.64,-254.69 353.35,-252.19 359.83,-260.57 363.64,-254.69"/>
</g>
<!-- [root] aws_internet_gateway.igw&#45;reto (expand) -->
<g id="node3" class="node">
<title>[root] aws_internet_gateway.igw&#45;reto (expand)</title>
<polygon fill="none" stroke="black" points="1214.32,-252 977.32,-252 977.32,-216 1214.32,-216 1214.32,-252"/>
<text text-anchor="middle" x="1095.82" y="-230.3" font-family="Times,serif" font-size="14.00">aws_internet_gateway.igw&#45;reto</text>
</g>
<!-- [root] aws_vpc.vpc&#45;reto (expand) -->
<g id="node10" class="node">
<title>[root] aws_vpc.vpc&#45;reto (expand)</title>
<polygon fill="none" stroke="black" points="905.32,-180 766.32,-180 766.32,-144 905.32,-144 905.32,-180"/>
<text text-anchor="middle" x="835.82" y="-158.3" font-family="Times,serif" font-size="14.00">aws_vpc.vpc&#45;reto</text>
</g>
<!-- [root] aws_internet_gateway.igw&#45;reto (expand)&#45;&gt;[root] aws_vpc.vpc&#45;reto (expand) -->
<g id="edge8" class="edge">
<title>[root] aws_internet_gateway.igw&#45;reto (expand)&#45;&gt;[root] aws_vpc.vpc&#45;reto (expand)</title>
<path fill="none" stroke="black" d="M1032.55,-215.97C995.28,-205.93 947.96,-193.19 909.07,-182.72"/>
<polygon fill="black" stroke="black" points="909.94,-179.33 899.38,-180.11 908.12,-186.09 909.94,-179.33"/>
</g>
<!-- [root] aws_key_pair.key&#45;reto (expand)&#45;&gt;[root] provider[&quot;registry.terraform.io/hashicorp/aws&quot;] -->
<g id="edge9" class="edge">
<title>[root] aws_key_pair.key&#45;reto (expand)&#45;&gt;[root] provider[&quot;registry.terraform.io/hashicorp/aws&quot;]</title>
<path fill="none" stroke="black" d="M425.82,-143.7C425.82,-135.98 425.82,-126.71 425.82,-118.11"/>
<polygon fill="black" stroke="black" points="429.32,-118.1 425.82,-108.1 422.32,-118.1 429.32,-118.1"/>
</g>
<!-- [root] aws_route_table.rt&#45;public&#45;reto (expand) -->
<g id="node5" class="node">
<title>[root] aws_route_table.rt&#45;public&#45;reto (expand)</title>
<polygon fill="none" stroke="black" points="1100.32,-324 869.32,-324 869.32,-288 1100.32,-288 1100.32,-324"/>
<text text-anchor="middle" x="984.82" y="-302.3" font-family="Times,serif" font-size="14.00">aws_route_table.rt&#45;public&#45;reto</text>
</g>
<!-- [root] aws_route_table.rt&#45;public&#45;reto (expand)&#45;&gt;[root] aws_internet_gateway.igw&#45;reto (expand) -->
<g id="edge10" class="edge">
<title>[root] aws_route_table.rt&#45;public&#45;reto (expand)&#45;&gt;[root] aws_internet_gateway.igw&#45;reto (expand)</title>
<path fill="none" stroke="black" d="M1011.98,-287.88C1026.36,-278.81 1044.21,-267.55 1059.73,-257.76"/>
<polygon fill="black" stroke="black" points="1061.97,-260.48 1068.57,-252.19 1058.24,-254.56 1061.97,-260.48"/>
</g>
<!-- [root] aws_route_table_association.rta&#45;public&#45;reto (expand) -->
<g id="node6" class="node">
<title>[root] aws_route_table_association.rta&#45;public&#45;reto (expand)</title>
<polygon fill="none" stroke="black" points="939.82,-396 613.82,-396 613.82,-360 939.82,-360 939.82,-396"/>
<text text-anchor="middle" x="776.82" y="-374.3" font-family="Times,serif" font-size="14.00">aws_route_table_association.rta&#45;public&#45;reto</text>
</g>
<!-- [root] aws_route_table_association.rta&#45;public&#45;reto (expand)&#45;&gt;[root] aws_route_table.rt&#45;public&#45;reto (expand) -->
<g id="edge11" class="edge">
<title>[root] aws_route_table_association.rta&#45;public&#45;reto (expand)&#45;&gt;[root] aws_route_table.rt&#45;public&#45;reto (expand)</title>
<path fill="none" stroke="black" d="M827.44,-359.97C856.63,-350.14 893.51,-337.73 924.24,-327.39"/>
<polygon fill="black" stroke="black" points="925.62,-330.62 933.98,-324.11 923.39,-323.98 925.62,-330.62"/>
</g>
<!-- [root] aws_route_table_association.rta&#45;public&#45;reto (expand)&#45;&gt;[root] aws_subnet.subnet&#45;reto (expand) -->
<g id="edge12" class="edge">
<title>[root] aws_route_table_association.rta&#45;public&#45;reto (expand)&#45;&gt;[root] aws_subnet.subnet&#45;reto (expand)</title>
<path fill="none" stroke="black" d="M759.82,-359.87C734.94,-334.82 688.5,-288.05 660.06,-259.41"/>
<polygon fill="black" stroke="black" points="662.42,-256.82 652.89,-252.19 657.45,-261.75 662.42,-256.82"/>
</g>
<!-- [root] aws_security_group.sg&#45;reto (expand)&#45;&gt;[root] aws_vpc.vpc&#45;reto (expand) -->
<g id="edge13" class="edge">
<title>[root] aws_security_group.sg&#45;reto (expand)&#45;&gt;[root] aws_vpc.vpc&#45;reto (expand)</title>
<path fill="none" stroke="black" d="M848.62,-215.7C846.73,-207.9 844.45,-198.51 842.34,-189.83"/>
<polygon fill="black" stroke="black" points="845.74,-189 839.98,-180.1 838.94,-190.65 845.74,-189"/>
</g>
<!-- [root] aws_subnet.subnet&#45;reto (expand)&#45;&gt;[root] aws_vpc.vpc&#45;reto (expand) -->
<g id="edge14" class="edge">
<title>[root] aws_subnet.subnet&#45;reto (expand)&#45;&gt;[root] aws_vpc.vpc&#45;reto (expand)</title>
<path fill="none" stroke="black" d="M684.49,-215.97C712.44,-206.19 747.72,-193.84 777.19,-183.52"/>
<polygon fill="black" stroke="black" points="778.65,-186.72 786.94,-180.11 776.34,-180.11 778.65,-186.72"/>
</g>
<!-- [root] aws_subnet.subnet&#45;reto (expand)&#45;&gt;[root] var.availability_zone -->
<g id="edge15" class="edge">
<title>[root] aws_subnet.subnet&#45;reto (expand)&#45;&gt;[root] var.availability_zone</title>
<path fill="none" stroke="black" d="M542,-217.18C484.01,-207.3 407.78,-194.13 331.6,-180.31"/>
<polygon fill="black" stroke="black" points="331.81,-176.79 321.34,-178.44 330.56,-183.68 331.81,-176.79"/>
</g>
<!-- [root] var.subnet_cidr -->
<g id="node16" class="node">
<title>[root] var.subnet_cidr</title>
<polygon fill="none" stroke="black" points="692.82,-180 572.82,-180 572.82,-144 698.82,-144 698.82,-174 692.82,-180"/>
<polyline fill="none" stroke="black" points="692.82,-180 692.82,-174 "/>
<polyline fill="none" stroke="black" points="698.82,-174 692.82,-174 "/>
<text text-anchor="middle" x="635.82" y="-158.3" font-family="Times,serif" font-size="14.00">var.subnet_cidr</text>
</g>
<!-- [root] aws_subnet.subnet&#45;reto (expand)&#45;&gt;[root] var.subnet_cidr -->
<g id="edge16" class="edge">
<title>[root] aws_subnet.subnet&#45;reto (expand)&#45;&gt;[root] var.subnet_cidr</title>
<path fill="none" stroke="black" d="M635.82,-215.7C635.82,-207.98 635.82,-198.71 635.82,-190.11"/>
<polygon fill="black" stroke="black" points="639.32,-190.1 635.82,-180.1 632.32,-190.1 639.32,-190.1"/>
</g>
<!-- [root] aws_volume_attachment.vatt&#45;instance&#45;reto (expand) -->
<g id="node9" class="node">
<title>[root] aws_volume_attachment.vatt&#45;instance&#45;reto (expand)</title>
<polygon fill="none" stroke="black" points="548.32,-396 225.32,-396 225.32,-360 548.32,-360 548.32,-396"/>
<text text-anchor="middle" x="386.82" y="-374.3" font-family="Times,serif" font-size="14.00">aws_volume_attachment.vatt&#45;instance&#45;reto</text>
</g>
<!-- [root] aws_volume_attachment.vatt&#45;instance&#45;reto (expand)&#45;&gt;[root] aws_ebs_volume.vol&#45;reto (expand) -->
<g id="edge17" class="edge">
<title>[root] aws_volume_attachment.vatt&#45;instance&#45;reto (expand)&#45;&gt;[root] aws_ebs_volume.vol&#45;reto (expand)</title>
<path fill="none" stroke="black" d="M334.02,-359.97C303.43,-350.1 264.75,-337.62 232.61,-327.25"/>
<polygon fill="black" stroke="black" points="233.46,-323.85 222.87,-324.11 231.31,-330.51 233.46,-323.85"/>
</g>
<!-- [root] aws_volume_attachment.vatt&#45;instance&#45;reto (expand)&#45;&gt;[root] aws_instance.instance&#45;reto (expand) -->
<g id="edge18" class="edge">
<title>[root] aws_volume_attachment.vatt&#45;instance&#45;reto (expand)&#45;&gt;[root] aws_instance.instance&#45;reto (expand)</title>
<path fill="none" stroke="black" d="M398.69,-359.7C404.33,-351.47 411.18,-341.48 417.39,-332.42"/>
<polygon fill="black" stroke="black" points="420.33,-334.33 423.1,-324.1 414.55,-330.37 420.33,-334.33"/>
</g>
<!-- [root] aws_vpc.vpc&#45;reto (expand)&#45;&gt;[root] provider[&quot;registry.terraform.io/hashicorp/aws&quot;] -->
<g id="edge19" class="edge">
<title>[root] aws_vpc.vpc&#45;reto (expand)&#45;&gt;[root] provider[&quot;registry.terraform.io/hashicorp/aws&quot;]</title>
<path fill="none" stroke="black" d="M766.27,-149.13C695.87,-137.11 586.88,-118.5 511.26,-105.59"/>
<polygon fill="black" stroke="black" points="511.73,-102.12 501.29,-103.88 510.55,-109.02 511.73,-102.12"/>
</g>
<!-- [root] var.vps_cidr -->
<g id="node17" class="node">
<title>[root] var.vps_cidr</title>
<polygon fill="none" stroke="black" points="880.82,-108 784.82,-108 784.82,-72 886.82,-72 886.82,-102 880.82,-108"/>
<polyline fill="none" stroke="black" points="880.82,-108 880.82,-102 "/>
<polyline fill="none" stroke="black" points="886.82,-102 880.82,-102 "/>
<text text-anchor="middle" x="835.82" y="-86.3" font-family="Times,serif" font-size="14.00">var.vps_cidr</text>
</g>
<!-- [root] aws_vpc.vpc&#45;reto (expand)&#45;&gt;[root] var.vps_cidr -->
<g id="edge20" class="edge">
<title>[root] aws_vpc.vpc&#45;reto (expand)&#45;&gt;[root] var.vps_cidr</title>
<path fill="none" stroke="black" d="M835.82,-143.7C835.82,-135.98 835.82,-126.71 835.82,-118.11"/>
<polygon fill="black" stroke="black" points="839.32,-118.1 835.82,-108.1 832.32,-118.1 839.32,-118.1"/>
</g>
<!-- [root] var.region -->
<g id="node15" class="node">
<title>[root] var.region</title>
<polygon fill="none" stroke="black" points="464.32,-36 381.32,-36 381.32,0 470.32,0 470.32,-30 464.32,-36"/>
<polyline fill="none" stroke="black" points="464.32,-36 464.32,-30 "/>
<polyline fill="none" stroke="black" points="470.32,-30 464.32,-30 "/>
<text text-anchor="middle" x="425.82" y="-14.3" font-family="Times,serif" font-size="14.00">var.region</text>
</g>
<!-- [root] provider[&quot;registry.terraform.io/hashicorp/aws&quot;]&#45;&gt;[root] var.region -->
<g id="edge25" class="edge">
<title>[root] provider[&quot;registry.terraform.io/hashicorp/aws&quot;]&#45;&gt;[root] var.region</title>
<path fill="none" stroke="black" d="M425.82,-71.7C425.82,-63.98 425.82,-54.71 425.82,-46.11"/>
<polygon fill="black" stroke="black" points="429.32,-46.1 425.82,-36.1 422.32,-46.1 429.32,-46.1"/>
</g>
<!-- [root] meta.count&#45;boundary (EachMode fixup) -->
<g id="node18" class="node">
<title>[root] meta.count&#45;boundary (EachMode fixup)</title>
<ellipse fill="none" stroke="black" cx="824.82" cy="-450" rx="222.86" ry="18"/>
<text text-anchor="middle" x="824.82" y="-446.3" font-family="Times,serif" font-size="14.00">[root] meta.count&#45;boundary (EachMode fixup)</text>
</g>
<!-- [root] meta.count&#45;boundary (EachMode fixup)&#45;&gt;[root] aws_route_table_association.rta&#45;public&#45;reto (expand) -->
<g id="edge21" class="edge">
<title>[root] meta.count&#45;boundary (EachMode fixup)&#45;&gt;[root] aws_route_table_association.rta&#45;public&#45;reto (expand)</title>
<path fill="none" stroke="black" d="M812.96,-431.7C807.32,-423.47 800.47,-413.48 794.26,-404.42"/>
<polygon fill="black" stroke="black" points="797.09,-402.37 788.55,-396.1 791.32,-406.33 797.09,-402.37"/>
</g>
<!-- [root] meta.count&#45;boundary (EachMode fixup)&#45;&gt;[root] aws_volume_attachment.vatt&#45;instance&#45;reto (expand) -->
<g id="edge22" class="edge">
<title>[root] meta.count&#45;boundary (EachMode fixup)&#45;&gt;[root] aws_volume_attachment.vatt&#45;instance&#45;reto (expand)</title>
<path fill="none" stroke="black" d="M729.24,-433.72C662.91,-423.12 574.14,-408.94 503.61,-397.66"/>
<polygon fill="black" stroke="black" points="503.77,-394.15 493.34,-396.02 502.66,-401.06 503.77,-394.15"/>
</g>
<!-- [root] provider[&quot;registry.terraform.io/hashicorp/aws&quot;] (close) -->
<g id="node19" class="node">
<title>[root] provider[&quot;registry.terraform.io/hashicorp/aws&quot;] (close)</title>
<ellipse fill="none" stroke="black" cx="291.82" cy="-450" rx="291.65" ry="18"/>
<text text-anchor="middle" x="291.82" y="-446.3" font-family="Times,serif" font-size="14.00">[root] provider[&quot;registry.terraform.io/hashicorp/aws&quot;] (close)</text>
</g>
<!-- [root] provider[&quot;registry.terraform.io/hashicorp/aws&quot;] (close)&#45;&gt;[root] aws_route_table_association.rta&#45;public&#45;reto (expand) -->
<g id="edge23" class="edge">
<title>[root] provider[&quot;registry.terraform.io/hashicorp/aws&quot;] (close)&#45;&gt;[root] aws_route_table_association.rta&#45;public&#45;reto (expand)</title>
<path fill="none" stroke="black" d="M400.67,-433.29C474.17,-422.68 571.5,-408.63 648.74,-397.49"/>
<polygon fill="black" stroke="black" points="649.62,-400.9 659.02,-396 648.62,-393.97 649.62,-400.9"/>
</g>
<!-- [root] provider[&quot;registry.terraform.io/hashicorp/aws&quot;] (close)&#45;&gt;[root] aws_volume_attachment.vatt&#45;instance&#45;reto (expand) -->
<g id="edge24" class="edge">
<title>[root] provider[&quot;registry.terraform.io/hashicorp/aws&quot;] (close)&#45;&gt;[root] aws_volume_attachment.vatt&#45;instance&#45;reto (expand)</title>
<path fill="none" stroke="black" d="M314.82,-432.05C326.98,-423.09 342.1,-411.96 355.33,-402.2"/>
<polygon fill="black" stroke="black" points="357.74,-404.78 363.71,-396.03 353.58,-399.15 357.74,-404.78"/>
</g>
<!-- [root] root -->
<g id="node20" class="node">
<title>[root] root</title>
<ellipse fill="none" stroke="black" cx="557.82" cy="-522" rx="58.49" ry="18"/>
<text text-anchor="middle" x="557.82" y="-518.3" font-family="Times,serif" font-size="14.00">[root] root</text>
</g>
<!-- [root] root&#45;&gt;[root] meta.count&#45;boundary (EachMode fixup) -->
<g id="edge26" class="edge">
<title>[root] root&#45;&gt;[root] meta.count&#45;boundary (EachMode fixup)</title>
<path fill="none" stroke="black" d="M600.72,-509.75C641.68,-499.01 704.19,-482.63 752.79,-469.89"/>
<polygon fill="black" stroke="black" points="753.84,-473.23 762.62,-467.31 752.06,-466.46 753.84,-473.23"/>
</g>
<!-- [root] root&#45;&gt;[root] provider[&quot;registry.terraform.io/hashicorp/aws&quot;] (close) -->
<g id="edge27" class="edge">
<title>[root] root&#45;&gt;[root] provider[&quot;registry.terraform.io/hashicorp/aws&quot;] (close)</title>
<path fill="none" stroke="black" d="M514.79,-509.68C474.28,-499.01 412.8,-482.84 364.65,-470.17"/>
<polygon fill="black" stroke="black" points="365.47,-466.76 354.9,-467.6 363.68,-473.53 365.47,-466.76"/>
</g>
</g>
</svg>
